<svg width="24" height="24" viewBox="0 0 24 24" fill="none" xmlns="http://www.w3.org/2000/svg">
<path d="M21.5094 10.2033L19.3277 10.1025C19.1285 10.0936 18.9523 9.96973 18.8765 9.78613L18.4269 8.70449C18.3511 8.51973 18.3878 8.30801 18.5226 8.16113L19.9941 6.54668C20.1785 6.34395 20.1718 6.03066 19.9777 5.83652L18.164 4.02246C17.9691 3.82832 17.6562 3.8209 17.453 4.00645L15.8393 5.47793C15.6917 5.6123 15.4796 5.6498 15.2956 5.57324L14.2139 5.12441C14.0295 5.04824 13.9069 4.87246 13.8979 4.67246L13.7967 2.4916C13.7838 2.21699 13.5576 2.00098 13.2834 2.00098H10.7166C10.4424 2.00098 10.2154 2.21699 10.2025 2.4916L10.1021 4.67246C10.0931 4.87207 9.97008 5.04824 9.78609 5.12441L8.70404 5.57324C8.51888 5.6502 8.30716 5.61269 8.16028 5.47793L6.54579 4.00645C6.34266 3.8209 6.02938 3.82832 5.83484 4.02246L4.02152 5.83652C3.8266 6.03105 3.81996 6.34395 4.00512 6.54668L5.47663 8.16113C5.6114 8.3084 5.64734 8.52012 5.57116 8.70449L5.12311 9.78652C5.04654 9.97051 4.87154 10.0939 4.67154 10.1029L2.49063 10.2037C2.21641 10.2162 2 10.4428 2 10.7174V13.2838C2 13.558 2.21641 13.785 2.49063 13.7975L4.67154 13.8982C4.87154 13.9072 5.04694 14.0307 5.12311 14.2146L5.57116 15.2963C5.64773 15.4811 5.61179 15.6928 5.47663 15.8396L4.00512 17.4533C3.81918 17.6572 3.82699 17.9697 4.02074 18.1643L5.83601 19.9783C6.03016 20.1728 6.34266 20.1795 6.54618 19.9947L8.15989 18.5229C8.30676 18.3885 8.51966 18.3514 8.70365 18.4279L9.78531 18.8764C9.96969 18.9529 10.0923 19.1287 10.1013 19.3287L10.2017 21.5096C10.2142 21.7838 10.4416 22.0002 10.7158 22.0002H13.2826C13.5569 22.0002 13.783 21.7838 13.7959 21.5096L13.8971 19.3287C13.9061 19.1291 14.0291 18.9529 14.2131 18.8764L15.2948 18.4279C15.4792 18.3514 15.6913 18.3885 15.8386 18.5229L17.4523 19.9947C17.6554 20.1795 17.9683 20.1725 18.1632 19.9783L19.9769 18.1643C20.1711 17.9697 20.1777 17.6572 19.9933 17.4533L18.5218 15.8396C18.387 15.6924 18.3495 15.4807 18.4261 15.2963L18.8757 14.2146C18.9515 14.0307 19.1273 13.9072 19.3269 13.8982L21.5086 13.7975C21.7828 13.785 21.9984 13.558 21.9984 13.2838V10.7174C21.9984 10.4428 21.7828 10.2162 21.5086 10.2037L21.5094 10.2033ZM11.9998 15.2666C10.1966 15.2666 8.73334 13.8041 8.73334 12.0006C8.73334 10.1971 10.1966 8.73418 11.9998 8.73418C13.803 8.73418 15.2655 10.1967 15.2655 12.0006C15.2655 13.8045 13.803 15.2666 11.9998 15.2666Z" fill="#7F7F7F"/>
</svg>
